<svg version="1.1" id="Layer_1" xmlns="http://www.w3.org/2000/svg" xmlns:xlink="http://www.w3.org/1999/xlink" x="0px" y="0px"
	 width="100%" viewBox="0 0 1080 1080" enable-background="new 0 0 1080 1080" xml:space="preserve">
<path fill="#FFFFFF" opacity="1.000000" stroke="none" 
	d="
M1081.000000,582.000000 
	C1081.000000,748.317322 1081.000000,914.634583 1081.000000,1080.975952 
	C721.050781,1080.975952 361.101532,1080.975952 1.076140,1080.975952 
	C1.076140,721.085510 1.076140,361.170959 1.076140,1.128217 
	C360.879761,1.128217 720.759583,1.128217 1081.000000,1.128217 
	C1081.000000,182.029221 1081.000000,363.058685 1080.626099,544.544312 
	C1078.538208,545.588684 1076.824097,546.176819 1074.516479,546.968628 
	C1074.020508,544.727112 1073.359741,542.377197 1072.996826,539.982178 
	C1071.889404,532.672791 1066.090820,528.244812 1060.474487,530.763184 
	C1058.317627,528.351746 1056.123413,525.898438 1054.214844,523.764587 
	C1055.142090,522.005920 1056.220215,519.960938 1057.298462,517.915894 
	C1056.864746,517.557983 1056.431030,517.200012 1055.997314,516.842041 
	C1053.621094,517.833557 1051.244873,518.825073 1049.058105,519.737610 
	C1044.615845,514.670166 1039.791870,511.239868 1033.258789,512.604675 
	C1031.802856,510.647766 1030.515015,508.842255 1029.147461,507.099304 
	C1027.726440,505.288330 1025.880493,503.719757 1024.836670,501.722961 
	C1022.677979,497.593536 1018.618286,495.196869 1014.898682,497.300140 
	C1010.502869,499.785645 1006.998840,498.957703 1003.654114,495.959076 
	C1002.307434,494.751740 1001.476074,492.969543 1000.410217,491.448975 
	C1001.919617,490.621582 1003.416199,489.769379 1004.945190,488.979919 
	C1005.495544,488.695770 1006.123840,488.562622 1006.716553,488.360535 
	C1006.968140,487.875610 1007.219666,487.390686 1007.471252,486.905762 
	C1005.343994,485.613098 1003.367126,483.828400 1001.060242,483.123230 
	C994.998047,481.270050 995.273376,486.181091 995.292542,490.600555 
	C994.847290,490.433990 994.401978,490.267426 993.956665,490.100861 
	C992.811768,487.486908 991.666809,484.872986 990.950623,483.237823 
	C986.079346,482.296844 981.930176,482.008789 978.253235,480.539154 
	C976.725647,479.928589 975.449890,476.811951 975.405579,474.805237 
	C975.338684,471.772522 976.450012,468.713806 977.150635,465.216858 
	C971.805481,466.224579 967.197388,467.093384 962.885925,467.906219 
	C961.840698,465.478333 961.105957,463.771606 960.243896,461.769135 
	C958.126038,463.462738 956.606506,464.677856 954.220764,466.585663 
	C953.043884,463.616974 952.085693,461.200073 950.951050,458.337921 
	C947.503601,458.307617 944.352783,457.032715 944.475525,452.366760 
	C942.220154,452.366760 940.165894,452.820038 938.443665,452.257141 
	C936.047668,451.474091 933.849915,450.013550 931.660461,448.688873 
	C929.247131,447.228729 926.845642,445.712402 924.641724,443.964813 
	C923.966736,443.429535 923.959900,442.051666 923.647095,441.059631 
	C924.647339,441.076904 925.654480,441.030304 926.645264,441.136230 
	C927.206299,441.196259 927.740540,441.506622 928.552185,441.800171 
	C925.640930,433.938385 924.422363,433.653137 917.233521,438.777191 
	C913.976990,434.214966 910.190735,433.315826 904.517944,434.410889 
	C902.587280,434.783600 899.125916,433.366577 898.264587,431.752838 
	C896.840637,429.085144 896.959229,425.594086 896.290283,421.636566 
	C893.009216,422.402313 888.269775,418.689575 884.189331,423.483398 
	C883.614136,424.159241 882.002441,423.952820 880.892395,424.141022 
	C880.914307,424.127258 880.890503,424.159943 880.932617,423.765289 
	C881.310852,422.653442 881.611084,421.916534 881.991699,421.223785 
	C882.548096,420.211029 883.162109,419.229919 883.751587,418.235291 
	C882.760254,417.825256 881.616821,416.866058 880.801758,417.091919 
	C874.170044,418.929382 872.075745,413.031830 868.292786,409.385803 
	C870.790833,409.385803 873.288818,409.385803 875.786865,409.385803 
	C876.026611,408.768097 876.266357,408.150360 876.506104,407.532654 
	C873.849487,406.048309 871.196289,403.325836 868.535522,403.318390 
	C861.375061,403.298370 854.815918,402.495361 848.120056,399.335938 
	C844.122009,397.449432 843.849060,395.796661 844.470764,392.355133 
	C846.024963,392.801239 847.257202,393.154907 847.858154,393.327362 
	C847.858154,390.523315 847.858154,388.017212 847.858154,384.891083 
	C841.934265,389.619965 835.697510,387.778900 829.428223,385.330688 
	C828.750488,385.066010 827.827026,385.399017 827.022461,385.495758 
	C820.085266,386.330017 816.839905,383.117432 817.323914,376.211060 
	C817.406921,375.026733 816.595215,372.981445 815.728699,372.680206 
	C813.245483,371.816833 810.164246,370.635284 807.967590,371.413086 
	C803.493835,372.997162 802.868713,370.169952 801.748962,367.430267 
	C801.158508,365.985535 800.657043,364.504425 799.690002,361.889282 
	C797.519226,365.251129 795.943542,367.691437 793.734009,371.113281 
	C792.224548,367.403046 791.274048,365.066620 790.558228,363.307159 
	C792.570251,361.942017 794.243774,360.806549 795.917358,359.671082 
	C793.974426,358.123596 792.235535,355.750366 790.044006,355.208771 
	C786.070984,354.226837 781.820679,354.406769 777.701172,353.961975 
	C775.405579,353.714172 772.739319,353.784454 770.978577,352.607056 
	C769.344482,351.514343 768.233459,349.059906 767.759094,347.004883 
	C767.410217,345.493958 769.165771,342.399139 768.770630,342.177979 
	C766.474182,340.893036 763.845459,340.156250 761.274963,339.423615 
	C759.622864,338.952667 757.430298,339.358490 756.260986,338.409302 
	C753.112244,335.853088 750.102356,335.928284 746.515259,337.208801 
	C742.489685,338.645844 737.940735,335.828217 736.382141,331.919403 
	C735.370728,329.383087 733.618286,327.142273 731.751282,324.022980 
	C731.780151,323.743469 731.933044,322.264862 732.085938,320.786255 
	C730.664307,321.235199 729.122253,321.466644 727.843811,322.174255 
	C724.157471,324.214600 720.903748,322.839264 720.000977,318.736359 
	C719.610718,316.962982 719.359497,315.090973 718.590637,313.480743 
	C715.120605,306.213287 710.760376,304.711029 705.334961,308.608093 
	C703.552917,308.055847 701.879761,307.411285 700.148132,307.035736 
	C698.382935,306.652893 696.566650,306.429077 694.761658,306.321075 
	C690.097961,306.042023 687.424072,303.071381 688.266479,298.763123 
	C688.542603,297.350769 689.315247,296.035553 690.264648,293.669861 
	C687.070190,292.555389 683.591797,290.039215 681.326721,290.862213 
	C678.070801,292.045288 676.057861,291.081757 673.498596,290.025024 
	C671.996765,289.404938 670.296387,288.973541 668.684326,288.970520 
	C664.692871,288.962982 660.501709,289.718170 657.602600,286.035645 
	C655.303162,283.114746 653.285461,279.972076 651.177734,276.977722 
	C652.123657,275.696259 652.933777,274.598755 654.558594,272.397583 
	C652.086975,272.397583 650.083984,271.833710 649.526184,272.492798 
	C646.745361,275.778809 643.772095,273.071381 640.979065,273.363556 
	C634.843079,274.005371 629.346619,273.177643 624.073730,270.082001 
	C623.458313,269.720703 622.427612,270.138428 621.608459,270.038696 
	C619.459106,269.776978 617.320312,269.428925 614.347351,268.993805 
	C616.509705,265.776917 617.828491,263.814911 619.233826,261.724182 
	C620.050232,262.415222 620.421143,262.715363 620.776733,263.032715 
	C621.816956,263.961304 622.851135,264.896729 623.887695,265.829468 
	C624.295715,264.493835 624.876221,263.182617 625.069702,261.816589 
	C625.329590,259.982056 625.290466,258.105164 625.343994,256.989929 
	C629.593506,256.989929 633.070374,257.239532 636.491028,256.908356 
	C639.074768,256.658203 641.556396,255.276382 644.136230,255.075470 
	C652.222107,254.445740 652.223694,254.570053 652.063599,246.966248 
	C652.053894,246.504364 652.328857,246.036484 652.463074,245.598419 
	C657.356689,245.428650 657.356689,245.428650 658.072815,239.684250 
	C660.341553,240.264725 662.546387,240.798706 664.734131,241.395340 
	C668.464233,242.412598 672.495911,239.918518 671.710510,236.387146 
	C670.864502,232.583298 673.785950,231.489655 675.384216,231.357666 
	C680.208740,230.959198 680.847351,228.078354 680.629578,224.641144 
	C684.094788,224.424393 687.294861,224.367172 690.457153,223.991684 
	C694.805908,223.475311 699.279175,218.021072 703.189331,225.046997 
	C704.130310,222.152176 706.114807,219.262939 705.359558,217.685669 
	C703.892029,214.621048 703.961365,212.553284 706.687805,210.982376 
	C708.909485,209.702347 711.440125,208.806122 713.945496,208.205750 
	C718.006714,207.232544 722.159485,206.641098 727.281128,205.704132 
	C730.984497,209.030640 735.301758,207.816315 736.468567,200.212997 
	C735.018494,200.802338 733.767334,201.310837 731.137024,202.379868 
	C731.604248,198.664856 731.950928,195.908463 732.265015,193.411270 
	C734.763855,193.800354 736.378479,194.051758 737.993042,194.303162 
	C738.187256,192.451096 738.381409,190.599014 738.605652,188.459808 
	C739.194763,188.335861 739.977539,188.007828 740.746033,188.038651 
	C743.538574,188.150772 746.326294,188.383087 749.655334,188.606216 
	C750.041992,187.488205 750.802124,186.158783 750.923706,184.773346 
	C751.264343,180.891663 750.895081,177.204453 753.423157,173.451248 
	C755.992737,169.636353 753.034241,165.574814 748.040100,165.087036 
	C748.267822,164.144562 748.189758,162.764526 748.751709,162.415848 
	C752.701172,159.965103 752.458557,156.524139 751.437134,152.754639 
	C751.231873,151.997192 751.302002,151.132507 751.390564,150.333374 
	C751.980408,145.013443 752.316162,140.029053 746.490601,136.765930 
	C743.742126,135.226379 742.213867,132.478394 746.984680,130.791031 
	C747.753601,130.519043 748.579773,129.514038 748.783142,128.699127 
	C749.504211,125.808670 750.096436,122.870781 750.484192,119.917595 
	C750.762390,117.798508 750.636414,115.626350 750.690796,113.477882 
	C748.837463,114.248650 746.990051,115.034149 745.124695,115.774513 
	C744.841370,115.886978 744.474915,115.790169 743.790039,115.790169 
	C742.736938,111.807281 740.110352,112.935837 736.955139,114.945137 
	C737.761169,107.234688 734.488708,103.912590 727.249817,105.114586 
	C727.980530,103.114517 728.424561,101.899185 728.868530,100.683853 
	C728.509766,100.484688 728.150940,100.285522 727.792175,100.086357 
	C726.901367,101.255737 726.010559,102.425117 724.956665,103.808594 
	C723.735168,103.286362 722.471680,102.746178 721.083740,102.152802 
	C722.175659,100.442825 723.028503,99.107300 723.881287,97.771774 
	C724.033569,97.096291 724.185791,96.420799 724.338013,95.745308 
	C715.045776,98.592194 709.301086,92.657471 702.941589,89.287270 
	C703.556091,87.479599 705.083862,84.739357 704.541138,84.237305 
	C703.170593,82.969498 700.903564,82.288681 698.932861,82.123657 
	C693.080994,81.633606 687.200317,81.382973 681.327576,81.309158 
	C679.518066,81.286415 677.697571,82.132477 675.882141,82.580719 
	C675.909851,83.247902 675.937622,83.915085 675.965332,84.582275 
	C679.564026,85.541412 683.162659,86.500549 686.918823,87.501678 
	C683.776245,92.858360 682.880127,92.995033 678.257568,89.805382 
	C677.119995,89.020432 675.653748,88.711884 674.338623,88.184341 
	C673.892212,89.486641 673.572510,90.851738 672.966003,92.074631 
	C672.275024,93.467819 671.463379,95.758484 670.470825,95.889366 
	C664.042236,96.737038 657.660583,99.754951 651.006165,96.644768 
	C650.028503,96.187828 648.445435,97.026237 645.833130,97.505531 
	C648.328491,99.265968 649.473938,100.074112 650.702637,100.940933 
	C649.776062,102.971863 648.869141,104.959587 647.456970,108.054840 
	C646.402527,105.362778 645.765259,103.735725 645.133301,102.122269 
	C641.520020,103.389015 641.520020,103.389015 641.762512,106.699532 
	C642.184265,112.455544 640.255127,114.125130 634.723877,112.770592 
	C633.919739,112.573677 633.149658,112.164726 632.339661,112.077332 
	C628.829041,111.698524 626.110352,112.386093 625.573608,116.657127 
	C625.310730,118.748756 624.429626,120.762680 623.797424,122.917229 
	C619.542908,121.438850 624.329163,113.618088 617.457581,115.440804 
	C615.325195,116.006416 613.529968,117.842926 612.187500,118.706894 
	C614.275269,121.484978 615.755371,123.088600 616.706787,124.960930 
	C616.965820,125.470688 615.197144,127.659164 615.094727,127.607887 
	C613.330383,126.724449 611.681335,125.610672 609.871033,124.461044 
	C608.966858,125.819870 608.239868,128.248367 606.987244,128.559296 
	C602.072937,129.779129 597.003540,130.880203 591.971436,130.977280 
	C586.921936,131.074677 583.545105,132.668182 582.386353,137.263702 
	C584.764099,139.771210 590.209290,134.303986 591.327820,140.718567 
	C589.733459,140.718567 588.150452,140.297897 586.938293,140.790222 
	C581.212036,143.115982 575.555054,145.621521 569.937012,148.201416 
	C565.852112,150.077286 560.432800,150.649155 560.891296,157.298752 
	C560.948608,158.128571 559.137268,159.546570 557.947571,159.925537 
	C552.009216,161.817169 545.989258,163.452850 539.998047,165.178574 
	C540.037964,164.552551 540.077881,163.926544 540.117798,163.300522 
	C538.152466,162.697342 534.990112,161.046158 534.436279,161.678711 
	C532.413452,163.989380 526.761902,163.843964 529.025146,169.581329 
	C529.918030,171.844681 528.555664,174.997696 528.073059,178.950409 
	C519.051453,171.767319 515.508118,182.664383 509.006470,182.619873 
	C506.669098,178.271866 499.481873,176.910904 495.707184,180.809464 
	C498.975983,182.398422 501.986694,183.861954 504.997406,185.325470 
	C503.688202,186.535904 502.497864,186.433578 501.393433,186.694565 
	C499.965332,187.032013 498.605743,187.659546 497.216675,188.162170 
	C498.110107,189.138855 498.923462,190.209244 499.922119,191.062866 
	C500.731506,191.754745 501.763580,192.186127 503.285828,193.078171 
	C502.384247,193.638138 501.990814,193.918137 501.565765,194.136627 
	C501.124908,194.363235 500.455048,194.831314 500.224365,194.679276 
	C494.456451,190.878357 490.932434,196.053070 486.494507,197.898422 
	C481.624268,199.923553 480.200806,203.327957 481.075439,208.121429 
	C481.037811,208.074356 481.151642,208.113937 480.736450,208.077698 
	C475.796722,208.490280 471.344788,212.547394 466.843750,207.848404 
	C463.540405,211.818405 460.409119,211.468887 456.571655,208.955383 
	C453.046204,206.646240 451.077942,207.709320 449.749634,211.519073 
	C452.694458,212.008911 455.653198,212.501068 459.763855,213.184845 
	C457.252869,215.354950 455.814331,216.598206 455.149292,217.172958 
	C452.569946,216.887344 450.907471,216.588791 449.261078,216.660416 
	C449.046295,216.669754 448.562561,218.674179 448.803406,219.598099 
	C450.013550,224.240295 450.391052,227.690689 443.919037,224.228928 
	C443.363159,223.931625 442.350189,224.534683 441.540283,224.659119 
	C436.344055,225.457596 431.128479,226.144760 425.953400,227.061188 
	C422.772217,227.624527 419.965454,228.636108 421.767761,232.999908 
	C422.192047,234.027115 421.690186,235.436829 421.592957,237.019409 
	C412.950256,234.401550 418.392059,241.684647 415.863159,244.100006 
	C414.558716,243.399887 413.245026,242.440430 411.774780,241.966400 
	C409.669495,241.287582 406.539978,239.855881 405.477203,240.728989 
	C403.541168,242.319580 402.802277,245.367279 401.563873,247.807037 
	C398.725372,251.153946 391.895905,250.530655 392.533356,258.489746 
	C388.312073,255.904663 385.277924,256.617859 381.596344,258.646851 
	C378.553040,260.324097 373.785339,263.761017 371.068176,256.279968 
	C369.937683,259.786499 367.903473,262.682068 368.616638,264.499512 
	C371.146484,270.946533 367.980865,273.635925 362.763672,275.597839 
	C356.669525,272.058197 344.515228,274.232452 341.583191,278.838104 
	C339.738312,278.838104 338.300537,278.838104 336.862762,278.838104 
	C337.095215,279.995392 337.459534,281.145081 337.526428,282.311859 
	C337.607910,283.733856 337.913910,285.440399 337.284241,286.546417 
	C335.774445,289.198273 322.435699,292.806000 319.357269,291.702576 
	C314.202026,289.854736 306.988190,295.411041 307.260498,300.697174 
	C307.353149,302.496002 306.545135,305.506104 305.387146,305.942657 
	C303.450714,306.672699 300.894897,305.837250 298.613617,305.550903 
	C296.776154,305.320221 294.959045,304.927277 293.132904,304.606323 
	C293.132904,306.208130 293.132904,307.809937 293.132904,309.411713 
	C291.144958,311.608307 290.317383,314.414703 288.903839,316.885925 
	C287.999084,318.467590 286.356445,320.491455 284.824860,320.699493 
	C278.433563,321.567719 271.957764,321.807220 265.516541,322.322052 
	C264.592896,322.395874 263.566620,322.508850 262.800842,322.962891 
	C261.149445,323.942169 259.636536,325.154999 256.996094,327.034515 
	C256.996094,328.388336 256.986053,331.191193 256.998962,333.993958 
	C257.011627,336.749084 255.811615,338.131683 252.981903,337.325073 
	C246.737442,335.545013 244.103394,337.400299 244.198044,342.439209 
	C241.032990,343.266327 238.203232,344.007477 235.372482,344.744873 
	C233.770935,345.161987 232.189819,345.765625 230.561356,345.952179 
	C224.460648,346.651154 224.397797,346.686615 226.513245,352.592468 
	C225.519302,352.733307 224.586426,352.927826 223.644897,352.988647 
	C218.010315,353.352692 212.688263,353.128296 209.770111,360.151550 
	C208.397659,363.454712 202.325150,364.052124 200.579208,368.516785 
	C200.419342,368.925537 199.053787,368.935089 198.237503,369.003754 
	C189.328781,369.753082 184.147522,376.507782 178.578217,382.061646 
	C176.679489,383.955109 175.533020,385.542114 172.712936,386.167725 
	C168.120422,387.186554 163.962784,389.345032 161.691956,393.934967 
	C160.183945,396.982971 158.615646,400.001129 156.806641,403.559113 
	C156.756134,403.520935 157.638443,403.984650 158.233078,404.690643 
	C158.910339,405.494751 159.330902,406.515045 159.863037,407.441376 
	C158.787704,407.959564 157.754715,408.736755 156.624893,408.921417 
	C155.544800,409.097961 154.368347,408.567657 153.226303,408.512268 
	C151.820190,408.444092 149.408356,408.108551 149.170471,408.651123 
	C148.221283,410.815979 147.670151,413.274139 147.645996,415.630646 
	C147.640869,416.132202 150.459824,416.675720 151.986313,417.173340 
	C152.567001,417.362671 153.172012,417.477417 154.347565,417.771790 
	C150.665482,421.726471 149.441269,425.583130 153.622849,429.476776 
	C152.417389,430.627899 151.016068,432.868561 150.048843,432.694672 
	C148.245911,432.370544 146.695450,430.641998 145.050461,429.505219 
	C143.527252,431.903870 144.190292,434.797882 147.128174,437.515289 
	C149.010468,439.256348 150.705719,441.199615 153.042145,443.632599 
	C153.777832,443.410461 155.556488,442.873352 156.944275,442.454285 
	C157.329010,444.968689 157.320160,447.265198 158.084106,449.266785 
	C158.911530,451.434692 160.901550,453.190857 161.577194,455.376221 
	C162.355560,457.893829 161.386627,461.341736 162.776367,463.168579 
	C164.118851,464.933289 167.497147,465.149323 169.981186,466.045624 
	C169.916885,466.476349 169.852585,466.907104 169.788284,467.337830 
	C168.223541,467.337830 166.132309,466.720062 165.225891,467.492523 
	C164.064636,468.482147 162.889618,471.530701 163.402252,472.058441 
	C165.929718,474.660248 169.013321,476.721802 171.900681,478.974030 
	C173.068939,477.343201 174.237198,475.712372 175.830795,473.487823 
	C175.799515,473.471039 176.970078,473.729645 177.516266,474.457062 
	C179.506195,477.107208 181.432190,479.829041 183.109848,482.683899 
	C185.092407,486.057678 186.561172,489.846771 191.549820,489.498779 
	C191.930099,489.472198 192.686722,490.390320 192.748123,490.928711 
	C193.388718,496.545349 197.075378,494.965668 201.105103,494.523529 
	C199.954376,492.932098 199.168945,491.845886 198.178848,490.476593 
	C200.050797,489.903198 201.572693,489.437012 202.307480,489.211945 
	C204.374146,491.115540 205.850098,493.637177 207.393875,493.679413 
	C212.047165,493.806671 216.726837,492.969513 221.396225,492.508453 
	C221.454788,492.026825 221.513351,491.545166 221.571915,491.063538 
	C217.899353,490.479431 214.226791,489.895325 209.495483,489.142822 
	C211.085220,488.439850 211.506302,488.091614 211.925797,488.093506 
	C215.582901,488.110077 219.558273,487.365021 222.760315,488.602570 
	C224.328949,489.208801 224.345428,493.576447 225.315201,496.147125 
	C225.594986,496.888824 226.745819,497.741150 227.498245,497.742035 
	C228.252731,497.742920 229.699814,496.683014 229.656570,496.192719 
	C229.225494,491.307495 233.274612,490.942749 236.186615,489.379944 
	C237.828186,488.498993 239.382263,487.455017 241.159592,486.372498 
	C239.815903,485.204987 239.045822,484.535889 238.275757,483.866760 
	C238.297806,483.320526 238.319870,482.774292 238.341934,482.228058 
	C244.441605,481.286713 250.555374,480.426025 256.633972,479.364014 
	C259.040009,478.943695 262.075195,476.794678 263.605835,477.639557 
	C269.431885,480.855438 270.805054,476.923218 272.718140,472.855133 
	C271.522217,472.233459 270.344757,471.621368 268.954437,470.898590 
	C273.569763,463.503235 282.115509,465.103607 288.408478,461.491058 
	C292.370850,463.982208 296.264191,463.971344 299.171112,459.319550 
	C300.900665,456.551819 302.200806,453.492126 304.120667,450.876862 
	C305.074799,449.577179 306.906586,448.499420 308.497498,448.224274 
	C309.752869,448.007141 311.213440,449.286682 312.641235,449.699829 
	C317.639069,451.146118 320.800934,448.811310 321.018890,443.683716 
	C321.095367,441.884613 321.496338,440.098450 321.558075,438.299835 
	C321.709290,433.893677 324.134460,431.841553 328.487579,432.696808 
	C331.061646,433.202576 333.107117,433.318481 334.830353,430.522552 
	C335.433563,429.543915 338.731293,429.197388 340.027557,429.928741 
	C341.739777,430.894775 344.135956,433.792908 343.712799,434.831238 
	C342.228058,438.474121 342.826111,441.269806 344.796051,444.380798 
	C345.437775,445.394257 344.896881,447.156586 344.896881,448.603638 
	C339.714325,448.348724 334.651306,454.576294 336.580170,458.692810 
	C337.871124,461.447998 340.274750,464.475769 342.927582,465.569489 
	C345.444000,466.607025 348.933075,465.285583 352.270294,465.128540 
	C352.715607,465.830872 352.885040,466.406097 352.748108,467.132568 
	C352.080231,467.808411 351.327332,468.414124 351.416656,468.845337 
	C352.559998,474.365356 353.946075,479.836517 355.025330,485.367920 
	C356.297607,491.888641 363.045898,496.588715 369.401306,495.139648 
	C392.386505,534.825378 415.075897,574.334045 437.776337,613.836365 
	C456.094879,645.713440 474.148743,677.747314 492.864319,709.389709 
	C502.950928,726.443054 518.738342,733.856689 538.537903,733.264038 
	C550.742371,732.898743 560.715820,727.135986 570.713501,721.166809 
	C595.116455,706.596924 603.273438,677.138672 589.393433,652.362122 
	C576.848633,629.969055 563.864380,607.822571 551.150452,585.523743 
	C543.284363,571.727600 535.561157,557.850037 528.111938,543.715393 
	C536.966003,546.200073 545.481934,548.978271 554.304688,551.930298 
	C560.561279,559.488892 567.609314,565.760498 576.647339,568.655396 
	C583.986328,571.006287 591.810486,571.896729 599.455627,573.227234 
	C624.236328,577.540039 650.859680,560.253052 655.618652,535.677490 
	C659.269897,516.822205 661.270264,497.647705 664.026917,478.618378 
	C666.379578,462.377777 668.763611,446.141693 671.484680,429.933228 
	C673.696350,431.049774 675.569824,432.115784 677.416260,433.226624 
	C736.727478,468.908356 796.046265,504.577301 855.341614,540.285339 
	C902.672119,568.788025 949.892212,597.475098 997.320984,625.813049 
	C1022.111633,640.625122 1051.828979,633.275452 1066.854736,608.692444 
	C1071.627197,600.884583 1075.051514,592.252747 1079.326172,583.838684 
	C1080.039795,583.119629 1080.519897,582.559814 1081.000000,582.000000 
z"/>
<path fill="#FCFEFE" opacity="1.000000" stroke="none" 
	d="
M880.870483,424.154785 
	C882.002441,423.952820 883.614136,424.159241 884.189331,423.483398 
	C888.269775,418.689575 893.009216,422.402313 896.290283,421.636566 
	C896.959229,425.594086 896.840637,429.085144 898.264587,431.752838 
	C899.125916,433.366577 902.587280,434.783600 904.517944,434.410889 
	C910.190735,433.315826 913.976990,434.214966 917.233521,438.777191 
	C924.422363,433.653137 925.640930,433.938385 928.552185,441.800171 
	C927.740540,441.506622 927.206299,441.196259 926.645264,441.136230 
	C925.654480,441.030304 924.647339,441.076904 923.647095,441.059631 
	C923.959900,442.051666 923.966736,443.429535 924.641724,443.964813 
	C926.845642,445.712402 929.247131,447.228729 931.660461,448.688873 
	C933.849915,450.013550 936.047668,451.474091 938.443665,452.257141 
	C940.165894,452.820038 942.220154,452.366760 944.475525,452.366760 
	C944.352783,457.032715 947.503601,458.307617 950.951050,458.337921 
	C952.085693,461.200073 953.043884,463.616974 954.220764,466.585663 
	C956.606506,464.677856 958.126038,463.462738 960.243896,461.769135 
	C961.105957,463.771606 961.840698,465.478333 962.885925,467.906219 
	C967.197388,467.093384 971.805481,466.224579 977.150635,465.216858 
	C976.450012,468.713806 975.338684,471.772522 975.405579,474.805237 
	C975.449890,476.811951 976.725647,479.928589 978.253235,480.539154 
	C981.930176,482.008789 986.079346,482.296844 990.950623,483.237823 
	C991.666809,484.872986 992.811768,487.486908 993.956665,490.100861 
	C994.401978,490.267426 994.847290,490.433990 995.292542,490.600555 
	C995.273376,486.181091 994.998047,481.270050 1001.060242,483.123230 
	C1003.367126,483.828400 1005.343994,485.613098 1007.471252,486.905762 
	C1007.219666,487.390686 1006.968140,487.875610 1006.716553,488.360535 
	C1006.123840,488.562622 1005.495544,488.695770 1004.945190,488.979919 
	C1003.416199,489.769379 1001.919617,490.621582 1000.410217,491.448975 
	C1001.476074,492.969543 1002.307434,494.751740 1003.654114,495.959076 
	C1006.998840,498.957703 1010.502869,499.785645 1014.898682,497.300140 
	C1018.618286,495.196869 1022.677979,497.593536 1024.836670,501.722961 
	C1025.880493,503.719757 1027.726440,505.288330 1029.147461,507.099304 
	C1030.515015,508.842255 1031.802856,510.647766 1033.258789,512.604675 
	C1039.791870,511.239868 1044.615845,514.670166 1049.058105,519.737610 
	C1051.244873,518.825073 1053.621094,517.833557 1055.997314,516.842041 
	C1056.431030,517.200012 1056.864746,517.557983 1057.298462,517.915894 
	C1056.220215,519.960938 1055.142090,522.005920 1054.214844,523.764587 
	C1056.123413,525.898438 1058.317627,528.351746 1060.474487,530.763184 
	C1066.090820,528.244812 1071.889404,532.672791 1072.996826,539.982178 
	C1073.359741,542.377197 1074.020508,544.727112 1074.516479,546.968628 
	C1076.824097,546.176819 1078.538208,545.588684 1080.626099,545.000244 
	C1081.000000,550.354919 1081.000000,555.709900 1080.715088,561.419434 
	C1079.861572,561.572327 1079.293091,561.370667 1078.448975,560.920410 
	C1075.164795,547.258606 1067.478149,537.060120 1055.914429,530.050903 
	C1011.230835,502.966675 966.401062,476.123627 921.659363,449.135132 
	C908.007568,440.900269 894.463745,432.486572 880.870483,424.154785 
z"/>
<path fill="#CAFAF9" opacity="1.000000" stroke="none" 
	d="
M1078.724487,561.168945 
	C1079.293091,561.370667 1079.861572,561.572327 1080.715088,561.886963 
	C1081.000000,568.354431 1081.000000,574.708801 1081.000000,581.531616 
	C1080.519897,582.559814 1080.039795,583.119629 1079.265625,583.403442 
	C1078.889282,575.807922 1078.806885,568.488403 1078.724487,561.168945 
z"/>
<path fill="#02B19D" opacity="1.000000" stroke="none" 
	d="
M553.997925,551.756531 
	C545.481934,548.978271 536.966003,546.200073 528.170654,543.707520 
	C527.891296,543.993225 527.925476,544.107361 528.091675,543.792603 
	C527.826355,543.326538 527.394897,543.175293 526.625122,542.905640 
	C524.936523,542.187073 523.619080,541.494873 522.231140,541.000061 
	C497.847687,532.307617 473.194733,524.299927 449.132477,514.796082 
	C419.993744,503.287262 388.359406,497.878357 361.674316,479.437744 
	C360.564911,477.585968 359.766724,475.846954 358.885864,473.755493 
	C348.467743,456.687042 346.839203,439.325073 354.804443,421.186035 
	C355.513489,419.571289 355.585541,417.676849 355.968750,415.945648 
	C355.984070,415.979004 355.911621,415.991058 356.097717,415.843567 
	C356.545410,415.463562 356.636749,415.176880 356.585907,414.540649 
	C356.804199,413.665955 356.994415,413.086548 357.470184,411.637299 
	C355.198883,412.836395 353.605469,413.600403 352.086151,414.490906 
	C315.184814,436.119751 278.273987,457.732483 241.404480,479.415497 
	C224.987991,489.070038 208.379578,489.293243 191.351517,481.108063 
	C179.050339,475.195007 172.428940,464.384552 166.019135,453.122986 
	C151.263382,427.198212 158.958603,397.332397 184.648697,382.274780 
	C269.639832,332.459229 354.660980,282.694946 439.646851,232.870453 
	C453.543396,224.723343 467.319733,216.371262 481.151642,208.113922 
	C481.151642,208.113937 481.037811,208.074356 481.424561,208.057800 
	C486.003235,205.660309 490.223083,203.327026 494.382874,200.891159 
	C551.495056,167.447845 608.583496,133.963959 665.716980,100.557144 
	C678.186035,93.266319 691.483704,92.176788 705.178955,96.388275 
	C718.149841,100.377007 727.613037,108.932327 734.980530,120.044441 
	C735.004944,120.013046 734.930847,120.040451 734.986694,120.388855 
	C736.528992,123.333084 738.022461,125.924950 739.500916,128.525360 
	C753.835815,153.739120 746.127319,183.306686 721.183044,198.121887 
	C698.898193,211.357574 676.483887,224.375061 654.150879,237.529907 
	C636.409180,247.980316 618.704102,258.492767 600.696289,269.004120 
	C600.141724,269.284393 599.873535,269.538177 599.430664,269.822083 
	C599.255920,269.852173 599.002869,270.100494 598.668213,270.130615 
	C596.493591,271.375031 594.653748,272.589325 592.911255,273.836639 
	C593.008667,273.869659 592.816162,273.785919 592.502258,273.819641 
	C591.342041,274.411682 590.495728,274.970001 589.633728,275.565613 
	C589.618042,275.602936 589.542786,275.573395 589.236694,275.644409 
	C587.911499,276.437500 586.892395,277.159607 585.938354,277.925537 
	C586.003418,277.969330 585.891846,277.858856 585.538818,277.902954 
	C580.327820,280.901978 575.469849,283.856903 570.437622,286.828796 
	C570.263428,286.845703 570.007935,287.084961 569.742310,287.086945 
	C569.266663,287.354553 569.056702,287.620209 568.910767,287.918396 
	C568.974731,287.950897 568.877563,287.845245 568.554199,287.876465 
	C567.347046,288.492493 566.463135,289.077332 565.243347,289.746613 
	C512.472168,320.553162 460.036865,351.275299 407.215118,382.223877 
	C412.792786,383.680328 417.818695,384.625122 422.588623,386.299225 
	C449.211731,395.643005 475.760956,405.197113 502.359406,414.611481 
	C520.504089,421.033722 538.687988,427.345154 556.869751,434.129272 
	C556.258606,438.477112 555.577820,442.393982 555.014709,446.327728 
	C552.079163,466.833160 549.285706,487.359772 546.213867,507.844666 
	C544.463074,519.519775 543.920532,531.008057 549.050903,542.049927 
	C550.580139,545.341125 552.342407,548.523987 553.997925,551.756531 
z"/>
<path fill="#02B19D" opacity="1.000000" stroke="none" 
	d="
M1078.448975,560.920410 
	C1078.806885,568.488403 1078.889282,575.807922 1079.032227,583.562622 
	C1075.051514,592.252747 1071.627197,600.884583 1066.854736,608.692444 
	C1051.828979,633.275452 1022.111633,640.625122 997.320984,625.813049 
	C949.892212,597.475098 902.672119,568.788025 855.341614,540.285339 
	C796.046265,504.577301 736.727478,468.908356 677.416260,433.226624 
	C675.569824,432.115784 673.696350,431.049774 671.298401,429.650940 
	C643.838989,413.073029 616.968506,396.720276 589.965210,380.589905 
	C580.981750,375.223633 572.880188,369.062561 567.086121,359.762939 
	C561.229614,349.111450 558.564636,338.125946 560.654480,326.429779 
	C563.683899,309.475800 573.071228,296.061646 585.435425,284.201447 
	C585.986084,283.823853 586.246033,283.527496 586.658813,283.214905 
	C586.811646,283.198669 587.009460,282.963348 587.282104,282.941711 
	C587.788879,282.655670 588.023010,282.391235 588.470886,282.077698 
	C588.684631,282.028595 589.002747,281.726624 589.230591,281.716339 
	C589.754822,281.559387 589.931213,281.323029 589.993774,280.999451 
	C590.000000,281.001862 589.999390,280.990326 590.285034,280.973694 
	C590.831970,280.697845 591.093323,280.438599 591.542236,280.146393 
	C591.729858,280.113403 592.008606,279.853729 592.272339,279.854980 
	C592.775085,279.612274 593.013977,279.368286 593.565002,278.944824 
	C594.374634,278.328156 594.802185,277.667328 595.380005,277.486389 
	C612.654663,272.075836 629.005371,272.620636 645.130005,282.428070 
	C711.396973,322.733490 777.918884,362.619934 844.373718,402.616211 
	C856.481995,409.903625 868.715027,416.984009 880.890503,424.159973 
	C880.890503,424.159943 880.914307,424.127258 880.892395,424.141022 
	C894.463745,432.486572 908.007568,440.900269 921.659363,449.135132 
	C966.401062,476.123627 1011.230835,502.966675 1055.914429,530.050903 
	C1067.478149,537.060120 1075.164795,547.258606 1078.448975,560.920410 
z"/>
<path fill="#010101" opacity="1.000000" stroke="none" 
	d="
M361.985565,479.550537 
	C388.359406,497.878357 419.993744,503.287262 449.132477,514.796082 
	C473.194733,524.299927 497.847687,532.307617 522.231140,541.000061 
	C523.619080,541.494873 524.936523,542.187073 526.673706,543.182495 
	C527.348877,543.754150 527.637207,543.930786 527.925476,544.107361 
	C527.925476,544.107361 527.891296,543.993225 527.832520,544.001099 
	C535.561157,557.850037 543.284363,571.727600 551.150452,585.523743 
	C563.864380,607.822571 576.848633,629.969055 589.393433,652.362122 
	C603.273438,677.138672 595.116455,706.596924 570.713501,721.166809 
	C560.715820,727.135986 550.742371,732.898743 538.537903,733.264038 
	C518.738342,733.856689 502.950928,726.443054 492.864319,709.389709 
	C474.148743,677.747314 456.094879,645.713440 437.776337,613.836365 
	C415.075897,574.334045 392.386505,534.825378 369.364227,494.784760 
	C367.163483,491.138000 365.145447,488.101135 363.479614,484.882019 
	C362.649048,483.276947 362.463104,481.338287 361.985565,479.550537 
z"/>
<path fill="#010101" opacity="1.000000" stroke="none" 
	d="
M567.191772,360.120056 
	C572.880188,369.062561 580.981750,375.223633 589.965210,380.589905 
	C616.968506,396.720276 643.838989,413.073029 670.947571,429.621307 
	C668.763611,446.141693 666.379578,462.377777 664.026917,478.618378 
	C661.270264,497.647705 659.269897,516.822205 655.618652,535.677490 
	C650.859680,560.253052 624.236328,577.540039 599.455627,573.227234 
	C591.810486,571.896729 583.986328,571.006287 576.647339,568.655396 
	C567.609314,565.760498 560.561279,559.488892 554.304688,551.930298 
	C552.342407,548.523987 550.580139,545.341125 549.050903,542.049927 
	C543.920532,531.008057 544.463074,519.519775 546.213867,507.844666 
	C549.285706,487.359772 552.079163,466.833160 555.014709,446.327728 
	C555.577820,442.393982 556.258606,438.477112 556.920593,433.729431 
	C557.803528,427.009003 558.668518,421.114075 559.495300,415.213776 
	C562.068604,396.850311 564.627380,378.484772 567.191772,360.120056 
z"/>
<path fill="#FCFEFE" opacity="1.000000" stroke="none" 
	d="
M567.086121,359.762939 
	C564.627380,378.484772 562.068604,396.850311 559.495300,415.213776 
	C558.668518,421.114075 557.803528,427.009003 556.905212,433.306244 
	C538.687988,427.345154 520.504089,421.033722 502.359406,414.611481 
	C475.760956,405.197113 449.211731,395.643005 422.588623,386.299225 
	C417.818695,384.625122 412.792786,383.680328 407.215118,382.223877 
	C460.036865,351.275299 512.472168,320.553162 565.541870,289.905060 
	C567.076721,289.267792 567.977173,288.556519 568.877563,287.845245 
	C568.877563,287.845245 568.974731,287.950897 569.162598,287.886841 
	C569.569641,287.576843 569.788757,287.330902 570.007935,287.084961 
	C570.007935,287.084961 570.263428,286.845703 570.836914,286.887787 
	C576.695190,284.636780 582.569031,283.284119 585.891846,277.858856 
	C585.891846,277.858856 586.003418,277.969330 586.342102,277.973846 
	C587.634766,277.176697 588.588806,276.375061 589.542786,275.573395 
	C589.542786,275.573395 589.618042,275.602936 590.010864,275.714294 
	C591.207825,275.145721 592.012024,274.465820 592.816162,273.785919 
	C592.816162,273.785919 593.008667,273.869659 593.289795,273.893616 
	C595.381531,272.645233 597.192200,271.372864 599.002869,270.100494 
	C599.002869,270.100494 599.255920,269.852173 599.719604,269.810364 
	C600.449768,269.504944 600.716248,269.241302 600.982727,268.977661 
	C618.704102,258.492767 636.409180,247.980316 654.150879,237.529907 
	C676.483887,224.375061 698.898193,211.357574 721.183044,198.121887 
	C746.127319,183.306686 753.835815,153.739120 739.500916,128.525360 
	C738.022461,125.924950 736.528992,123.333084 735.334595,120.406464 
	C736.868713,120.607574 738.110718,121.139488 739.352661,121.671402 
	C739.599304,121.363571 739.846008,121.055748 740.092651,120.747925 
	C738.981995,119.555664 737.871399,118.363403 736.760742,117.171127 
	C736.159180,118.139359 735.557678,119.107597 734.956116,120.075836 
	C727.613037,108.932327 718.149841,100.377007 705.178955,96.388275 
	C691.483704,92.176788 678.186035,93.266319 665.716980,100.557144 
	C608.583496,133.963959 551.495056,167.447845 494.382874,200.891159 
	C490.223083,203.327026 486.003235,205.660309 481.462158,208.104889 
	C480.200806,203.327957 481.624268,199.923553 486.494507,197.898422 
	C490.932434,196.053070 494.456451,190.878357 500.224365,194.679276 
	C500.455048,194.831314 501.124908,194.363235 501.565765,194.136627 
	C501.990814,193.918137 502.384247,193.638138 503.285828,193.078171 
	C501.763580,192.186127 500.731506,191.754745 499.922119,191.062866 
	C498.923462,190.209244 498.110107,189.138855 497.216675,188.162170 
	C498.605743,187.659546 499.965332,187.032013 501.393433,186.694565 
	C502.497864,186.433578 503.688202,186.535904 504.997406,185.325470 
	C501.986694,183.861954 498.975983,182.398422 495.707184,180.809464 
	C499.481873,176.910904 506.669098,178.271866 509.006470,182.619873 
	C515.508118,182.664383 519.051453,171.767319 528.073059,178.950409 
	C528.555664,174.997696 529.918030,171.844681 529.025146,169.581329 
	C526.761902,163.843964 532.413452,163.989380 534.436279,161.678711 
	C534.990112,161.046158 538.152466,162.697342 540.117798,163.300522 
	C540.077881,163.926544 540.037964,164.552551 539.998047,165.178574 
	C545.989258,163.452850 552.009216,161.817169 557.947571,159.925537 
	C559.137268,159.546570 560.948608,158.128571 560.891296,157.298752 
	C560.432800,150.649155 565.852112,150.077286 569.937012,148.201416 
	C575.555054,145.621521 581.212036,143.115982 586.938293,140.790222 
	C588.150452,140.297897 589.733459,140.718567 591.327820,140.718567 
	C590.209290,134.303986 584.764099,139.771210 582.386353,137.263702 
	C583.545105,132.668182 586.921936,131.074677 591.971436,130.977280 
	C597.003540,130.880203 602.072937,129.779129 606.987244,128.559296 
	C608.239868,128.248367 608.966858,125.819870 609.871033,124.461044 
	C611.681335,125.610672 613.330383,126.724449 615.094727,127.607887 
	C615.197144,127.659164 616.965820,125.470688 616.706787,124.960930 
	C615.755371,123.088600 614.275269,121.484978 612.187500,118.706894 
	C613.529968,117.842926 615.325195,116.006416 617.457581,115.440804 
	C624.329163,113.618088 619.542908,121.438850 623.797424,122.917229 
	C624.429626,120.762680 625.310730,118.748756 625.573608,116.657127 
	C626.110352,112.386093 628.829041,111.698524 632.339661,112.077332 
	C633.149658,112.164726 633.919739,112.573677 634.723877,112.770592 
	C640.255127,114.125130 642.184265,112.455544 641.762512,106.699532 
	C641.520020,103.389015 641.520020,103.389015 645.133301,102.122269 
	C645.765259,103.735725 646.402527,105.362778 647.456970,108.054840 
	C648.869141,104.959587 649.776062,102.971863 650.702637,100.940933 
	C649.473938,100.074112 648.328491,99.265968 645.833130,97.505531 
	C648.445435,97.026237 650.028503,96.187828 651.006165,96.644768 
	C657.660583,99.754951 664.042236,96.737038 670.470825,95.889366 
	C671.463379,95.758484 672.275024,93.467819 672.966003,92.074631 
	C673.572510,90.851738 673.892212,89.486641 674.338623,88.184341 
	C675.653748,88.711884 677.119995,89.020432 678.257568,89.805382 
	C682.880127,92.995033 683.776245,92.858360 686.918823,87.501678 
	C683.162659,86.500549 679.564026,85.541412 675.965332,84.582275 
	C675.937622,83.915085 675.909851,83.247902 675.882141,82.580719 
	C677.697571,82.132477 679.518066,81.286415 681.327576,81.309158 
	C687.200317,81.382973 693.080994,81.633606 698.932861,82.123657 
	C700.903564,82.288681 703.170593,82.969498 704.541138,84.237305 
	C705.083862,84.739357 703.556091,87.479599 702.941589,89.287270 
	C709.301086,92.657471 715.045776,98.592194 724.338013,95.745308 
	C724.185791,96.420799 724.033569,97.096291 723.881287,97.771774 
	C723.028503,99.107300 722.175659,100.442825 721.083740,102.152802 
	C722.471680,102.746178 723.735168,103.286362 724.956665,103.808594 
	C726.010559,102.425117 726.901367,101.255737 727.792175,100.086357 
	C728.150940,100.285522 728.509766,100.484688 728.868530,100.683853 
	C728.424561,101.899185 727.980530,103.114517 727.249817,105.114586 
	C734.488708,103.912590 737.761169,107.234688 736.955139,114.945137 
	C740.110352,112.935837 742.736938,111.807281 743.790039,115.790169 
	C744.474915,115.790169 744.841370,115.886978 745.124695,115.774513 
	C746.990051,115.034149 748.837463,114.248650 750.690796,113.477882 
	C750.636414,115.626350 750.762390,117.798508 750.484192,119.917595 
	C750.096436,122.870781 749.504211,125.808670 748.783142,128.699127 
	C748.579773,129.514038 747.753601,130.519043 746.984680,130.791031 
	C742.213867,132.478394 743.742126,135.226379 746.490601,136.765930 
	C752.316162,140.029053 751.980408,145.013443 751.390564,150.333374 
	C751.302002,151.132507 751.231873,151.997192 751.437134,152.754639 
	C752.458557,156.524139 752.701172,159.965103 748.751709,162.415848 
	C748.189758,162.764526 748.267822,164.144562 748.040100,165.087036 
	C753.034241,165.574814 755.992737,169.636353 753.423157,173.451248 
	C750.895081,177.204453 751.264343,180.891663 750.923706,184.773346 
	C750.802124,186.158783 750.041992,187.488205 749.655334,188.606216 
	C746.326294,188.383087 743.538574,188.150772 740.746033,188.038651 
	C739.977539,188.007828 739.194763,188.335861 738.605652,188.459808 
	C738.381409,190.599014 738.187256,192.451096 737.993042,194.303162 
	C736.378479,194.051758 734.763855,193.800354 732.265015,193.411270 
	C731.950928,195.908463 731.604248,198.664856 731.137024,202.379868 
	C733.767334,201.310837 735.018494,200.802338 736.468567,200.212997 
	C735.301758,207.816315 730.984497,209.030640 727.281128,205.704132 
	C722.159485,206.641098 718.006714,207.232544 713.945496,208.205750 
	C711.440125,208.806122 708.909485,209.702347 706.687805,210.982376 
	C703.961365,212.553284 703.892029,214.621048 705.359558,217.685669 
	C706.114807,219.262939 704.130310,222.152176 703.189331,225.046997 
	C699.279175,218.021072 694.805908,223.475311 690.457153,223.991684 
	C687.294861,224.367172 684.094788,224.424393 680.629578,224.641144 
	C680.847351,228.078354 680.208740,230.959198 675.384216,231.357666 
	C673.785950,231.489655 670.864502,232.583298 671.710510,236.387146 
	C672.495911,239.918518 668.464233,242.412598 664.734131,241.395340 
	C662.546387,240.798706 660.341553,240.264725 658.072815,239.684250 
	C657.356689,245.428650 657.356689,245.428650 652.463074,245.598419 
	C652.328857,246.036484 652.053894,246.504364 652.063599,246.966248 
	C652.223694,254.570053 652.222107,254.445740 644.136230,255.075470 
	C641.556396,255.276382 639.074768,256.658203 636.491028,256.908356 
	C633.070374,257.239532 629.593506,256.989929 625.343994,256.989929 
	C625.290466,258.105164 625.329590,259.982056 625.069702,261.816589 
	C624.876221,263.182617 624.295715,264.493835 623.887695,265.829468 
	C622.851135,264.896729 621.816956,263.961304 620.776733,263.032715 
	C620.421143,262.715363 620.050232,262.415222 619.233826,261.724182 
	C617.828491,263.814911 616.509705,265.776917 614.347351,268.993805 
	C617.320312,269.428925 619.459106,269.776978 621.608459,270.038696 
	C622.427612,270.138428 623.458313,269.720703 624.073730,270.082001 
	C629.346619,273.177643 634.843079,274.005371 640.979065,273.363556 
	C643.772095,273.071381 646.745361,275.778809 649.526184,272.492798 
	C650.083984,271.833710 652.086975,272.397583 654.558594,272.397583 
	C652.933777,274.598755 652.123657,275.696259 651.177734,276.977722 
	C653.285461,279.972076 655.303162,283.114746 657.602600,286.035645 
	C660.501709,289.718170 664.692871,288.962982 668.684326,288.970520 
	C670.296387,288.973541 671.996765,289.404938 673.498596,290.025024 
	C676.057861,291.081757 678.070801,292.045288 681.326721,290.862213 
	C683.591797,290.039215 687.070190,292.555389 690.264648,293.669861 
	C689.315247,296.035553 688.542603,297.350769 688.266479,298.763123 
	C687.424072,303.071381 690.097961,306.042023 694.761658,306.321075 
	C696.566650,306.429077 698.382935,306.652893 700.148132,307.035736 
	C701.879761,307.411285 703.552917,308.055847 705.334961,308.608093 
	C710.760376,304.711029 715.120605,306.213287 718.590637,313.480743 
	C719.359497,315.090973 719.610718,316.962982 720.000977,318.736359 
	C720.903748,322.839264 724.157471,324.214600 727.843811,322.174255 
	C729.122253,321.466644 730.664307,321.235199 732.085938,320.786255 
	C731.933044,322.264862 731.780151,323.743469 731.751282,324.022980 
	C733.618286,327.142273 735.370728,329.383087 736.382141,331.919403 
	C737.940735,335.828217 742.489685,338.645844 746.515259,337.208801 
	C750.102356,335.928284 753.112244,335.853088 756.260986,338.409302 
	C757.430298,339.358490 759.622864,338.952667 761.274963,339.423615 
	C763.845459,340.156250 766.474182,340.893036 768.770630,342.177979 
	C769.165771,342.399139 767.410217,345.493958 767.759094,347.004883 
	C768.233459,349.059906 769.344482,351.514343 770.978577,352.607056 
	C772.739319,353.784454 775.405579,353.714172 777.701172,353.961975 
	C781.820679,354.406769 786.070984,354.226837 790.044006,355.208771 
	C792.235535,355.750366 793.974426,358.123596 795.917358,359.671082 
	C794.243774,360.806549 792.570251,361.942017 790.558228,363.307159 
	C791.274048,365.066620 792.224548,367.403046 793.734009,371.113281 
	C795.943542,367.691437 797.519226,365.251129 799.690002,361.889282 
	C800.657043,364.504425 801.158508,365.985535 801.748962,367.430267 
	C802.868713,370.169952 803.493835,372.997162 807.967590,371.413086 
	C810.164246,370.635284 813.245483,371.816833 815.728699,372.680206 
	C816.595215,372.981445 817.406921,375.026733 817.323914,376.211060 
	C816.839905,383.117432 820.085266,386.330017 827.022461,385.495758 
	C827.827026,385.399017 828.750488,385.066010 829.428223,385.330688 
	C835.697510,387.778900 841.934265,389.619965 847.858154,384.891083 
	C847.858154,388.017212 847.858154,390.523315 847.858154,393.327362 
	C847.257202,393.154907 846.024963,392.801239 844.470764,392.355133 
	C843.849060,395.796661 844.122009,397.449432 848.120056,399.335938 
	C854.815918,402.495361 861.375061,403.298370 868.535522,403.318390 
	C871.196289,403.325836 873.849487,406.048309 876.506104,407.532654 
	C876.266357,408.150360 876.026611,408.768097 875.786865,409.385803 
	C873.288818,409.385803 870.790833,409.385803 868.292786,409.385803 
	C872.075745,413.031830 874.170044,418.929382 880.801758,417.091919 
	C881.616821,416.866058 882.760254,417.825256 883.751587,418.235291 
	C883.162109,419.229919 882.548096,420.211029 881.991699,421.223785 
	C881.611084,421.916534 881.310852,422.653442 880.932617,423.765320 
	C868.715027,416.984009 856.481995,409.903625 844.373718,402.616211 
	C777.918884,362.619934 711.396973,322.733490 645.130005,282.428070 
	C629.005371,272.620636 612.654663,272.075836 595.380005,277.486389 
	C594.802185,277.667328 594.374634,278.328156 593.305420,278.958618 
	C592.492126,279.385834 592.250366,279.619781 592.008606,279.853760 
	C592.008606,279.853729 591.729858,280.113403 591.256592,280.159058 
	C590.522034,280.466583 590.260681,280.728455 589.999390,280.990295 
	C589.999390,280.990326 590.000000,281.001862 589.777832,281.038696 
	C589.270813,281.207123 589.086487,281.424164 589.002747,281.726624 
	C589.002747,281.726624 588.684631,282.028595 588.200989,282.105042 
	C587.481384,282.442078 587.245422,282.702698 587.009460,282.963318 
	C587.009460,282.963348 586.811646,283.198669 586.336792,283.241882 
	C585.622864,283.617645 585.383789,283.950165 585.144653,284.282684 
	C573.071228,296.061646 563.683899,309.475800 560.654480,326.429779 
	C558.564636,338.125946 561.229614,349.111450 567.086121,359.762939 
M786.880493,362.725342 
	C787.424805,362.532867 787.969116,362.340363 788.513428,362.147888 
	C788.385864,361.868835 788.258301,361.589752 788.130737,361.310669 
	C787.570435,361.636993 787.010193,361.963348 786.880493,362.725342 
M707.490356,313.859528 
	C707.794128,313.431793 708.097961,313.004059 708.401733,312.576324 
	C707.952209,312.462433 707.502747,312.348541 707.053223,312.234619 
	C706.999390,312.735352 706.945618,313.236084 707.490356,313.859528 
M517.503784,185.299820 
	C517.878540,184.870697 518.264465,184.449677 518.598450,183.990845 
	C518.616943,183.965439 518.205078,183.626785 517.993530,183.433929 
	C517.713745,183.915833 517.433899,184.397720 517.503784,185.299820 
M691.703369,87.568840 
	C691.989319,87.295860 692.275330,87.022873 692.561340,86.749924 
	C692.448120,86.631577 692.242737,86.404137 692.235046,86.410637 
	C691.933472,86.665421 691.649780,86.941467 691.703369,87.568840 
M504.390381,191.202454 
	C504.785004,191.206650 505.179626,191.210846 505.574249,191.215042 
	C505.575745,191.051285 505.588196,190.745224 505.577087,190.744354 
	C505.184418,190.714035 504.789581,190.712341 504.390381,191.202454 
M784.609436,357.797394 
	C784.214539,357.793274 783.819702,357.789154 783.424805,357.785004 
	C783.423279,357.948883 783.410767,358.255188 783.421875,358.256012 
	C783.814819,358.286255 784.210022,358.287842 784.609436,357.797394 
z"/>
<path fill="#FCFEFE" opacity="1.000000" stroke="none" 
	d="
M480.736450,208.077698 
	C467.319733,216.371262 453.543396,224.723343 439.646851,232.870453 
	C354.660980,282.694946 269.639832,332.459229 184.648697,382.274780 
	C158.958603,397.332397 151.263382,427.198212 166.019135,453.122986 
	C172.428940,464.384552 179.050339,475.195007 191.351517,481.108063 
	C208.379578,489.293243 224.987991,489.070038 241.404480,479.415497 
	C278.273987,457.732483 315.184814,436.119751 352.086151,414.490906 
	C353.605469,413.600403 355.198883,412.836395 357.470184,411.637299 
	C356.994415,413.086548 356.804199,413.665955 356.414398,414.684937 
	C356.061554,415.395081 355.960510,415.683929 355.911621,415.991058 
	C355.911621,415.991058 355.984070,415.979004 355.678772,416.133667 
	C354.214478,418.481598 352.894562,420.606140 351.922729,422.879486 
	C345.922638,436.915405 346.435974,450.969910 351.994415,465.001465 
	C348.933075,465.285583 345.444000,466.607025 342.927582,465.569489 
	C340.274750,464.475769 337.871124,461.447998 336.580170,458.692810 
	C334.651306,454.576294 339.714325,448.348724 344.896881,448.603638 
	C344.896881,447.156586 345.437775,445.394257 344.796051,444.380798 
	C342.826111,441.269806 342.228058,438.474121 343.712799,434.831238 
	C344.135956,433.792908 341.739777,430.894775 340.027557,429.928741 
	C338.731293,429.197388 335.433563,429.543915 334.830353,430.522552 
	C333.107117,433.318481 331.061646,433.202576 328.487579,432.696808 
	C324.134460,431.841553 321.709290,433.893677 321.558075,438.299835 
	C321.496338,440.098450 321.095367,441.884613 321.018890,443.683716 
	C320.800934,448.811310 317.639069,451.146118 312.641235,449.699829 
	C311.213440,449.286682 309.752869,448.007141 308.497498,448.224274 
	C306.906586,448.499420 305.074799,449.577179 304.120667,450.876862 
	C302.200806,453.492126 300.900665,456.551819 299.171112,459.319550 
	C296.264191,463.971344 292.370850,463.982208 288.408478,461.491058 
	C282.115509,465.103607 273.569763,463.503235 268.954437,470.898590 
	C270.344757,471.621368 271.522217,472.233459 272.718140,472.855133 
	C270.805054,476.923218 269.431885,480.855438 263.605835,477.639557 
	C262.075195,476.794678 259.040009,478.943695 256.633972,479.364014 
	C250.555374,480.426025 244.441605,481.286713 238.341934,482.228058 
	C238.319870,482.774292 238.297806,483.320526 238.275757,483.866760 
	C239.045822,484.535889 239.815903,485.204987 241.159592,486.372498 
	C239.382263,487.455017 237.828186,488.498993 236.186615,489.379944 
	C233.274612,490.942749 229.225494,491.307495 229.656570,496.192719 
	C229.699814,496.683014 228.252731,497.742920 227.498245,497.742035 
	C226.745819,497.741150 225.594986,496.888824 225.315201,496.147125 
	C224.345428,493.576447 224.328949,489.208801 222.760315,488.602570 
	C219.558273,487.365021 215.582901,488.110077 211.925797,488.093506 
	C211.506302,488.091614 211.085220,488.439850 209.495483,489.142822 
	C214.226791,489.895325 217.899353,490.479431 221.571915,491.063538 
	C221.513351,491.545166 221.454788,492.026825 221.396225,492.508453 
	C216.726837,492.969513 212.047165,493.806671 207.393875,493.679413 
	C205.850098,493.637177 204.374146,491.115540 202.307480,489.211945 
	C201.572693,489.437012 200.050797,489.903198 198.178848,490.476593 
	C199.168945,491.845886 199.954376,492.932098 201.105103,494.523529 
	C197.075378,494.965668 193.388718,496.545349 192.748123,490.928711 
	C192.686722,490.390320 191.930099,489.472198 191.549820,489.498779 
	C186.561172,489.846771 185.092407,486.057678 183.109848,482.683899 
	C181.432190,479.829041 179.506195,477.107208 177.516266,474.457062 
	C176.970078,473.729645 175.799515,473.471039 175.830795,473.487823 
	C174.237198,475.712372 173.068939,477.343201 171.900681,478.974030 
	C169.013321,476.721802 165.929718,474.660248 163.402252,472.058441 
	C162.889618,471.530701 164.064636,468.482147 165.225891,467.492523 
	C166.132309,466.720062 168.223541,467.337830 169.788284,467.337830 
	C169.852585,466.907104 169.916885,466.476349 169.981186,466.045624 
	C167.497147,465.149323 164.118851,464.933289 162.776367,463.168579 
	C161.386627,461.341736 162.355560,457.893829 161.577194,455.376221 
	C160.901550,453.190857 158.911530,451.434692 158.084106,449.266785 
	C157.320160,447.265198 157.329010,444.968689 156.944275,442.454285 
	C155.556488,442.873352 153.777832,443.410461 153.042145,443.632599 
	C150.705719,441.199615 149.010468,439.256348 147.128174,437.515289 
	C144.190292,434.797882 143.527252,431.903870 145.050461,429.505219 
	C146.695450,430.641998 148.245911,432.370544 150.048843,432.694672 
	C151.016068,432.868561 152.417389,430.627899 153.622849,429.476776 
	C149.441269,425.583130 150.665482,421.726471 154.347565,417.771790 
	C153.172012,417.477417 152.567001,417.362671 151.986313,417.173340 
	C150.459824,416.675720 147.640869,416.132202 147.645996,415.630646 
	C147.670151,413.274139 148.221283,410.815979 149.170471,408.651123 
	C149.408356,408.108551 151.820190,408.444092 153.226303,408.512268 
	C154.368347,408.567657 155.544800,409.097961 156.624893,408.921417 
	C157.754715,408.736755 158.787704,407.959564 159.863037,407.441376 
	C159.330902,406.515045 158.910339,405.494751 158.233078,404.690643 
	C157.638443,403.984650 156.756134,403.520935 156.806641,403.559113 
	C158.615646,400.001129 160.183945,396.982971 161.691956,393.934967 
	C163.962784,389.345032 168.120422,387.186554 172.712936,386.167725 
	C175.533020,385.542114 176.679489,383.955109 178.578217,382.061646 
	C184.147522,376.507782 189.328781,369.753082 198.237503,369.003754 
	C199.053787,368.935089 200.419342,368.925537 200.579208,368.516785 
	C202.325150,364.052124 208.397659,363.454712 209.770111,360.151550 
	C212.688263,353.128296 218.010315,353.352692 223.644897,352.988647 
	C224.586426,352.927826 225.519302,352.733307 226.513245,352.592468 
	C224.397797,346.686615 224.460648,346.651154 230.561356,345.952179 
	C232.189819,345.765625 233.770935,345.161987 235.372482,344.744873 
	C238.203232,344.007477 241.032990,343.266327 244.198044,342.439209 
	C244.103394,337.400299 246.737442,335.545013 252.981903,337.325073 
	C255.811615,338.131683 257.011627,336.749084 256.998962,333.993958 
	C256.986053,331.191193 256.996094,328.388336 256.996094,327.034515 
	C259.636536,325.154999 261.149445,323.942169 262.800842,322.962891 
	C263.566620,322.508850 264.592896,322.395874 265.516541,322.322052 
	C271.957764,321.807220 278.433563,321.567719 284.824860,320.699493 
	C286.356445,320.491455 287.999084,318.467590 288.903839,316.885925 
	C290.317383,314.414703 291.144958,311.608307 293.132904,309.411713 
	C293.132904,307.809937 293.132904,306.208130 293.132904,304.606323 
	C294.959045,304.927277 296.776154,305.320221 298.613617,305.550903 
	C300.894897,305.837250 303.450714,306.672699 305.387146,305.942657 
	C306.545135,305.506104 307.353149,302.496002 307.260498,300.697174 
	C306.988190,295.411041 314.202026,289.854736 319.357269,291.702576 
	C322.435699,292.806000 335.774445,289.198273 337.284241,286.546417 
	C337.913910,285.440399 337.607910,283.733856 337.526428,282.311859 
	C337.459534,281.145081 337.095215,279.995392 336.862762,278.838104 
	C338.300537,278.838104 339.738312,278.838104 341.583191,278.838104 
	C344.515228,274.232452 356.669525,272.058197 362.763672,275.597839 
	C367.980865,273.635925 371.146484,270.946533 368.616638,264.499512 
	C367.903473,262.682068 369.937683,259.786499 371.068176,256.279968 
	C373.785339,263.761017 378.553040,260.324097 381.596344,258.646851 
	C385.277924,256.617859 388.312073,255.904663 392.533356,258.489746 
	C391.895905,250.530655 398.725372,251.153946 401.563873,247.807037 
	C402.802277,245.367279 403.541168,242.319580 405.477203,240.728989 
	C406.539978,239.855881 409.669495,241.287582 411.774780,241.966400 
	C413.245026,242.440430 414.558716,243.399887 415.863159,244.100006 
	C418.392059,241.684647 412.950256,234.401550 421.592957,237.019409 
	C421.690186,235.436829 422.192047,234.027115 421.767761,232.999908 
	C419.965454,228.636108 422.772217,227.624527 425.953400,227.061188 
	C431.128479,226.144760 436.344055,225.457596 441.540283,224.659119 
	C442.350189,224.534683 443.363159,223.931625 443.919037,224.228928 
	C450.391052,227.690689 450.013550,224.240295 448.803406,219.598099 
	C448.562561,218.674179 449.046295,216.669754 449.261078,216.660416 
	C450.907471,216.588791 452.569946,216.887344 455.149292,217.172958 
	C455.814331,216.598206 457.252869,215.354950 459.763855,213.184845 
	C455.653198,212.501068 452.694458,212.008911 449.749634,211.519073 
	C451.077942,207.709320 453.046204,206.646240 456.571655,208.955383 
	C460.409119,211.468887 463.540405,211.818405 466.843750,207.848404 
	C471.344788,212.547394 475.796722,208.490280 480.736450,208.077698 
M264.450470,330.910553 
	C264.736053,330.089935 265.021637,329.269348 265.307190,328.448730 
	C264.568024,328.512207 263.828857,328.575714 263.089691,328.639221 
	C263.308350,329.404907 263.527039,330.170624 264.450470,330.910553 
M314.431061,296.703308 
	C314.704041,296.989288 314.977020,297.275238 315.250000,297.561218 
	C315.368378,297.448059 315.595886,297.242676 315.589386,297.234985 
	C315.334595,296.933350 315.058502,296.649750 314.431061,296.703308 
M154.296616,412.431152 
	C154.010620,412.704132 153.724625,412.977142 153.438629,413.250122 
	C153.551819,413.368500 153.757217,413.596008 153.764923,413.589508 
	C154.066574,413.334686 154.350235,413.058563 154.296616,412.431152 
M312.797546,299.390503 
	C312.793335,299.785400 312.789124,300.180328 312.784912,300.575226 
	C312.948792,300.576721 313.255096,300.589203 313.255951,300.578156 
	C313.286224,300.185211 313.287933,299.790039 312.797546,299.390503 
z"/>
<path fill="#FCFEFE" opacity="1.000000" stroke="none" 
	d="
M361.674316,479.437744 
	C362.463104,481.338287 362.649048,483.276947 363.479614,484.882019 
	C365.145447,488.101135 367.163483,491.138000 369.073181,494.604980 
	C363.045898,496.588715 356.297607,491.888641 355.025330,485.367920 
	C353.946075,479.836517 352.559998,474.365356 351.416656,468.845337 
	C351.327332,468.414124 352.080231,467.808411 353.053009,467.290161 
	C355.432404,469.567017 357.200470,471.837494 358.968567,474.107941 
	C359.766724,475.846954 360.564911,477.585968 361.674316,479.437744 
z"/>
<path fill="#0C2E2B" opacity="1.000000" stroke="none" 
	d="
M358.885864,473.755493 
	C357.200470,471.837494 355.432404,469.567017 353.359375,467.138947 
	C352.885040,466.406097 352.715607,465.830872 352.270294,465.128540 
	C346.435974,450.969910 345.922638,436.915405 351.922729,422.879486 
	C352.894562,420.606140 354.214478,418.481598 355.663483,416.100281 
	C355.585541,417.676849 355.513489,419.571289 354.804443,421.186035 
	C346.839203,439.325073 348.467743,456.687042 358.885864,473.755493 
z"/>
<path fill="#D3FBF9" opacity="1.000000" stroke="none" 
	d="
M585.538818,277.902954 
	C582.569031,283.284119 576.695190,284.636780 571.011108,286.870850 
	C575.469849,283.856903 580.327820,280.901978 585.538818,277.902954 
z"/>
<path fill="#D3FBF9" opacity="1.000000" stroke="none" 
	d="
M598.668213,270.130615 
	C597.192200,271.372864 595.381531,272.645233 593.192383,273.860596 
	C594.653748,272.589325 596.493591,271.375031 598.668213,270.130615 
z"/>
<path fill="#D3FBF9" opacity="1.000000" stroke="none" 
	d="
M589.236694,275.644409 
	C588.588806,276.375061 587.634766,277.176697 586.277039,277.930054 
	C586.892395,277.159607 587.911499,276.437500 589.236694,275.644409 
z"/>
<path fill="#D3FBF9" opacity="1.000000" stroke="none" 
	d="
M568.554199,287.876465 
	C567.977173,288.556519 567.076721,289.267792 565.877808,289.820618 
	C566.463135,289.077332 567.347046,288.492493 568.554199,287.876465 
z"/>
<path fill="#D3FBF9" opacity="1.000000" stroke="none" 
	d="
M592.502258,273.819641 
	C592.012024,274.465820 591.207825,275.145721 590.026550,275.676971 
	C590.495728,274.970001 591.342041,274.411682 592.502258,273.819641 
z"/>
<path fill="#0C2E2B" opacity="1.000000" stroke="none" 
	d="
M356.097717,415.843567 
	C355.960510,415.683929 356.061554,415.395081 356.386322,414.980225 
	C356.636749,415.176880 356.545410,415.463562 356.097717,415.843567 
z"/>
<path fill="#D3FBF9" opacity="1.000000" stroke="none" 
	d="
M600.696289,269.004089 
	C600.716248,269.241302 600.449768,269.504944 599.894287,269.780273 
	C599.873535,269.538177 600.141724,269.284393 600.696289,269.004089 
z"/>
<path fill="#FFFFFF" opacity="1.000000" stroke="none" 
	d="
M528.091675,543.792603 
	C527.637207,543.930786 527.348877,543.754150 527.012024,543.300781 
	C527.394897,543.175293 527.826355,543.326538 528.091675,543.792603 
z"/>
<path fill="#D3FBF9" opacity="1.000000" stroke="none" 
	d="
M569.742310,287.086914 
	C569.788757,287.330902 569.569641,287.576843 569.098633,287.854309 
	C569.056702,287.620209 569.266663,287.354553 569.742310,287.086914 
z"/>
<path fill="#D3FBF9" opacity="1.000000" stroke="none" 
	d="
M589.230591,281.716339 
	C589.086487,281.424164 589.270813,281.207123 589.771606,281.036316 
	C589.931213,281.323029 589.754822,281.559387 589.230591,281.716339 
z"/>
<path fill="#D3FBF9" opacity="1.000000" stroke="none" 
	d="
M587.282104,282.941711 
	C587.245422,282.702698 587.481384,282.442078 587.987244,282.154114 
	C588.023010,282.391235 587.788879,282.655670 587.282104,282.941711 
z"/>
<path fill="#D3FBF9" opacity="1.000000" stroke="none" 
	d="
M590.285034,280.973694 
	C590.260681,280.728455 590.522034,280.466583 591.068970,280.192047 
	C591.093323,280.438599 590.831970,280.697845 590.285034,280.973694 
z"/>
<path fill="#D3FBF9" opacity="1.000000" stroke="none" 
	d="
M592.272339,279.854980 
	C592.250366,279.619781 592.492126,279.385834 592.993408,279.138092 
	C593.013977,279.368286 592.775085,279.612274 592.272339,279.854980 
z"/>
<path fill="#D3FBF9" opacity="1.000000" stroke="none" 
	d="
M585.435425,284.201447 
	C585.383789,283.950165 585.622864,283.617645 586.183960,283.258148 
	C586.246033,283.527496 585.986084,283.823853 585.435425,284.201447 
z"/>
<path fill="#FFFFFF" opacity="1.000000" stroke="none" 
	d="
M734.980530,120.044441 
	C735.557678,119.107597 736.159180,118.139359 736.760742,117.171127 
	C737.871399,118.363403 738.981995,119.555664 740.092651,120.747925 
	C739.846008,121.055748 739.599304,121.363571 739.352661,121.671402 
	C738.110718,121.139488 736.868713,120.607574 735.278809,120.058060 
	C734.930847,120.040451 735.004944,120.013046 734.980530,120.044441 
z"/>
<path fill="#FFFFFF" opacity="1.000000" stroke="none" 
	d="
M786.665222,362.507507 
	C787.010193,361.963348 787.570435,361.636993 788.130737,361.310669 
	C788.258301,361.589752 788.385864,361.868835 788.513428,362.147888 
	C787.969116,362.340363 787.424805,362.532867 786.665222,362.507507 
z"/>
<path fill="#FFFFFF" opacity="1.000000" stroke="none" 
	d="
M707.191101,313.798157 
	C706.945618,313.236084 706.999390,312.735352 707.053223,312.234619 
	C707.502747,312.348541 707.952209,312.462433 708.401733,312.576324 
	C708.097961,313.004059 707.794128,313.431793 707.191101,313.798157 
z"/>
<path fill="#FFFFFF" opacity="1.000000" stroke="none" 
	d="
M517.328979,185.089722 
	C517.433899,184.397720 517.713745,183.915833 517.993530,183.433929 
	C518.205078,183.626785 518.616943,183.965439 518.598450,183.990845 
	C518.264465,184.449677 517.878540,184.870697 517.328979,185.089722 
z"/>
<path fill="#FFFFFF" opacity="1.000000" stroke="none" 
	d="
M691.533569,87.391800 
	C691.649780,86.941467 691.933472,86.665421 692.235046,86.410637 
	C692.242737,86.404137 692.448120,86.631577 692.561340,86.749908 
	C692.275330,87.022873 691.989319,87.295860 691.533569,87.391800 
z"/>
<path fill="#FFFFFF" opacity="1.000000" stroke="none" 
	d="
M504.392700,190.954544 
	C504.789581,190.712341 505.184418,190.714035 505.577087,190.744354 
	C505.588196,190.745224 505.575745,191.051285 505.574249,191.215027 
	C505.179626,191.210846 504.785004,191.206650 504.392700,190.954544 
z"/>
<path fill="#FFFFFF" opacity="1.000000" stroke="none" 
	d="
M784.607178,358.045441 
	C784.210022,358.287842 783.814819,358.286255 783.421875,358.256012 
	C783.410767,358.255188 783.423279,357.948883 783.424805,357.785004 
	C783.819702,357.789154 784.214539,357.793274 784.607178,358.045441 
z"/>
<path fill="#FFFFFF" opacity="1.000000" stroke="none" 
	d="
M264.098083,330.923431 
	C263.527039,330.170624 263.308350,329.404907 263.089691,328.639221 
	C263.828857,328.575714 264.568024,328.512207 265.307190,328.448730 
	C265.021637,329.269348 264.736053,330.089935 264.098083,330.923431 
z"/>
<path fill="#FFFFFF" opacity="1.000000" stroke="none" 
	d="
M314.608124,296.533539 
	C315.058502,296.649750 315.334595,296.933350 315.589386,297.234985 
	C315.595886,297.242676 315.368378,297.448059 315.250000,297.561218 
	C314.977020,297.275238 314.704041,296.989288 314.608124,296.533539 
z"/>
<path fill="#FFFFFF" opacity="1.000000" stroke="none" 
	d="
M154.466431,412.608215 
	C154.350235,413.058563 154.066574,413.334686 153.764923,413.589508 
	C153.757217,413.596008 153.551819,413.368500 153.438629,413.250122 
	C153.724625,412.977142 154.010620,412.704132 154.466431,412.608215 
z"/>
<path fill="#FFFFFF" opacity="1.000000" stroke="none" 
	d="
M313.045593,299.392853 
	C313.287933,299.790039 313.286224,300.185211 313.255951,300.578156 
	C313.255096,300.589203 312.948792,300.576721 312.784912,300.575226 
	C312.789124,300.180328 312.793335,299.785400 313.045593,299.392853 
z"/>
</svg>