<svg version="1.1" id="Layer_1" xmlns="http://www.w3.org/2000/svg" xmlns:xlink="http://www.w3.org/1999/xlink" x="0px" y="0px"
	 width="100%" viewBox="0 0 496 496" enable-background="new 0 0 496 496" xml:space="preserve">
<path fill="#000000" opacity="1.000000" stroke="none" 
	d="
M321.239410,198.071884 
	C322.268890,197.451736 322.960144,196.967850 323.717560,196.634109 
	C330.943970,193.450043 335.694061,196.853271 334.813812,204.715805 
	C333.752075,214.199234 330.654449,223.200134 327.839447,232.245026 
	C320.654968,255.329330 311.663666,277.726105 301.732056,299.750702 
	C300.973755,301.432281 300.700836,303.760193 297.752228,304.066833 
	C295.882721,301.859863 297.495880,299.748077 298.304138,297.825653 
	C307.213745,276.633514 315.390320,255.170227 322.133667,233.186020 
	C324.666565,224.928482 327.847900,216.843430 329.179169,208.242142 
	C329.280731,207.585922 329.597137,206.933884 329.566589,206.291641 
	C329.467377,204.204361 330.666260,201.544189 328.575623,200.215134 
	C326.350647,198.800629 324.574921,201.088135 322.936310,202.302353 
	C307.346008,213.854645 294.904968,228.327286 284.402313,244.511719 
	C278.148254,254.149185 272.196350,263.982727 266.106384,273.726715 
	C265.665039,274.432831 265.223145,275.139801 264.750641,275.825073 
	C263.570038,277.537231 262.217010,279.225433 259.871704,278.201294 
	C257.856262,277.321228 257.815826,275.309296 258.081512,273.440613 
	C258.759796,268.670135 259.509094,263.909424 260.265228,259.150452 
	C260.547272,257.375366 261.011475,255.618073 260.325043,253.311752 
	C255.206192,261.324554 251.566498,269.670532 247.477081,277.758820 
	C243.647141,285.333923 240.240555,293.122284 236.586105,300.787445 
	C235.631683,302.789307 234.958038,306.220306 232.137009,305.117096 
	C228.814880,303.817932 231.167862,300.760986 231.896835,298.687286 
	C237.853165,281.743408 245.012375,265.209869 248.941040,247.581451 
	C250.396271,241.051712 251.766037,234.506073 250.673752,227.827423 
	C250.084839,224.226654 249.554184,219.714172 243.721481,222.371246 
	C243.314056,222.556839 242.726486,222.417221 242.236420,222.340790 
	C231.964630,220.738586 223.383820,224.476578 215.366440,230.495041 
	C206.551193,237.112457 197.991486,243.941528 191.084259,252.653030 
	C186.513168,258.418152 183.918427,264.983459 182.468872,272.090851 
	C182.242981,273.198334 182.475525,274.460510 181.267456,275.298187 
	C178.129074,275.261993 178.656998,272.821747 178.730621,271.009766 
	C178.982529,264.809296 181.517715,259.393005 185.094452,254.478516 
	C193.446640,243.002335 204.147964,234.081894 215.985748,226.418808 
	C217.172333,225.650681 218.757736,225.349899 219.731323,223.217987 
	C188.799423,225.764542 159.107956,232.417175 129.761810,240.274628 
	C130.885681,253.038422 128.760284,265.209229 126.298126,277.360260 
	C122.071449,298.219330 118.356552,319.205933 110.661789,339.183777 
	C109.947342,341.038696 109.094749,342.867584 108.073563,344.568878 
	C107.206787,346.012878 105.938576,347.377655 103.998787,346.643829 
	C101.642021,345.752228 101.527771,343.635437 101.969749,341.598694 
	C103.379234,335.103455 104.851509,328.620453 106.407173,322.158600 
	C109.881287,307.727966 114.754173,293.757629 120.198792,279.960571 
	C125.034134,267.707489 125.314835,254.748062 126.042801,241.220444 
	C105.762917,246.604736 86.128693,251.928284 67.327583,260.168671 
	C68.370560,256.023346 71.679176,255.075073 74.602409,253.882507 
	C91.126129,247.141403 108.314819,242.468964 125.497139,237.797119 
	C154.729477,229.848892 184.287430,223.477707 214.427887,220.158600 
	C222.689163,219.248871 230.917542,218.564957 239.129868,216.959366 
	C250.296768,214.776154 256.146210,220.290588 256.270874,231.804199 
	C256.357239,239.783035 253.958176,247.406326 253.025803,255.365936 
	C254.994736,251.940109 256.889465,248.468628 258.958740,245.104523 
	C260.335815,242.865692 261.799011,239.928116 265.026276,241.136963 
	C268.273712,242.353378 267.330078,245.605103 266.993317,248.146790 
	C266.197235,254.154785 265.171417,260.132324 265.046448,266.398132 
	C269.932587,258.705811 274.894043,251.060150 279.689606,243.311783 
	C290.597015,225.688232 304.139404,210.500565 321.239410,198.071884 
z"/>
<path fill="#000000" opacity="1.000000" stroke="none" 
	d="
M362.479980,254.531921 
	C363.238098,252.682861 363.509460,250.075836 364.970184,250.101135 
	C367.970062,250.153107 370.867096,248.665833 373.603333,249.189560 
	C376.293457,249.704453 375.494659,252.087494 374.187225,254.263199 
	C369.132233,251.407623 367.153137,255.399612 365.856323,258.739105 
	C363.437469,264.967987 357.763367,265.590881 352.749969,267.073669 
	C349.031433,268.173492 346.979492,265.448639 346.226654,261.737915 
	C343.400909,262.216705 342.744995,263.739532 343.573578,266.017242 
	C345.391998,271.015991 341.969849,272.716766 338.374329,273.915588 
	C335.119873,275.000702 331.124023,277.403442 329.649628,271.507599 
	C329.468079,270.781555 329.070068,270.284485 328.311523,270.320862 
	C325.522186,270.454620 323.534912,269.371887 323.825623,266.391724 
	C324.132568,263.245178 324.285767,259.769531 327.804260,258.056641 
	C330.898071,260.193146 327.224670,262.952179 329.168579,265.439301 
	C332.569733,264.262451 335.279633,262.714722 334.169861,258.207825 
	C333.448029,255.276321 334.582733,253.350632 337.362518,252.347183 
	C339.808472,251.464233 341.843903,251.703857 342.978180,254.138962 
	C342.411774,255.785522 341.353943,255.538254 340.367981,255.587555 
	C338.794830,255.666199 338.356934,256.699127 338.780548,258.010315 
	C339.202240,259.315460 339.930573,260.646698 341.655304,259.918579 
	C343.778625,259.022217 346.423798,258.363464 347.162750,255.966034 
	C348.708038,250.952881 350.186432,245.876862 350.621124,240.746613 
	C348.524353,239.377258 346.231567,241.293381 344.508667,239.345078 
	C346.231873,236.150116 351.113007,238.284409 352.595062,234.616852 
	C353.786438,231.668518 353.427277,227.940643 356.822784,225.777527 
	C360.085510,228.538422 356.413574,231.835648 357.795074,234.804916 
	C359.795471,236.214218 362.582672,233.451935 364.584717,235.542053 
	C364.624268,236.434723 364.225464,237.079712 363.521637,237.077362 
	C357.096100,237.055969 354.639191,240.681503 353.997528,246.625275 
	C353.590149,250.399292 352.220367,254.060043 351.527344,257.816833 
	C351.211243,259.530304 350.526306,261.775665 352.332214,262.924438 
	C354.425934,264.256287 356.076599,262.299896 357.600525,261.182617 
	C359.778931,259.585510 361.306000,257.377441 362.479980,254.531921 
z"/>
<path fill="#000000" opacity="1.000000" stroke="none" 
	d="
M189.135452,288.361206 
	C184.128815,293.932587 177.586838,295.572388 171.964462,292.717865 
	C169.047668,294.577759 167.234909,299.700531 162.711700,297.532257 
	C159.432693,295.960358 160.906326,292.298126 161.357666,289.817780 
	C155.445831,285.906738 153.057877,289.958954 151.441101,294.218262 
	C149.636795,298.971619 146.140732,300.165863 142.013474,299.079468 
	C139.399643,298.391418 137.776169,298.818787 135.817780,300.286011 
	C134.007416,301.642334 131.603333,302.196960 129.745514,300.796204 
	C127.573044,299.158203 128.851486,296.839783 129.666306,294.871826 
	C131.194534,291.180847 133.921707,288.502441 137.407883,286.714233 
	C140.899979,284.923004 142.493179,285.993896 142.782318,289.917145 
	C142.912750,291.686859 142.861435,293.529663 144.113297,295.368744 
	C147.367691,294.314148 147.732819,291.293182 148.686905,288.800842 
	C150.509308,284.040314 157.265106,282.251129 161.829468,285.503448 
	C163.279938,285.077972 162.901810,281.919800 165.168350,282.851227 
	C167.271164,283.715393 166.311584,285.700226 166.195099,287.255493 
	C166.063416,289.013794 164.847946,290.675201 165.703369,292.765472 
	C170.750244,290.505981 170.455566,282.794189 176.559402,281.668640 
	C178.133850,284.499603 176.622314,287.123383 177.601471,289.539612 
	C179.603378,289.744781 180.982819,288.194977 181.541489,287.002838 
	C184.003021,281.750458 188.968597,281.380859 193.579803,280.174377 
	C196.924347,279.299316 197.790405,280.422882 197.724762,285.948883 
	C200.958557,286.328522 202.186462,282.059418 206.243256,282.501953 
	C203.847092,287.040131 200.674500,290.046692 196.217514,290.930511 
	C192.525513,291.662659 192.907166,288.154297 192.489090,285.757080 
	C190.948685,285.968231 190.435379,287.414917 189.135452,288.361206 
z"/>
<path fill="#000000" opacity="1.000000" stroke="none" 
	d="
M379.968872,248.175995 
	C382.237823,250.670456 379.035431,253.431351 381.070435,256.129669 
	C385.307495,253.848984 385.636322,248.004181 390.022888,245.496155 
	C392.061829,248.410828 391.022705,251.034561 390.722412,253.670090 
	C393.358124,253.327209 394.128571,250.150543 396.964996,250.338898 
	C397.892120,253.065521 395.773193,254.531754 394.177673,255.484360 
	C389.958527,258.003448 388.854736,261.871063 388.223114,266.288971 
	C387.732056,269.723694 386.988129,273.164276 385.938049,276.469299 
	C382.571136,287.066406 368.619537,292.393433 358.932770,286.913879 
	C355.673645,285.070282 355.302612,282.070862 358.390015,278.577087 
	C363.149170,273.191498 368.910522,268.943604 374.912476,265.029602 
	C376.818054,263.786926 378.728577,262.551819 380.863312,261.166260 
	C374.409241,258.337830 374.053284,252.632629 379.968872,248.175995 
M383.097687,270.735107 
	C383.703339,268.411133 384.081573,266.082855 383.634369,263.027344 
	C379.902252,265.601929 376.690552,267.657135 373.658966,269.950439 
	C370.079224,272.658417 366.582275,275.488678 363.200470,278.439056 
	C361.897827,279.575500 360.028473,280.881622 360.816803,282.984924 
	C361.547516,284.934448 363.747955,285.064423 365.477875,285.416687 
	C374.707550,287.296234 380.222931,282.840240 383.097687,270.735107 
z"/>
<path fill="#000000" opacity="1.000000" stroke="none" 
	d="
M330.232056,255.155685 
	C325.804504,255.381912 328.134583,252.849655 328.464935,251.355606 
	C328.729340,250.159729 330.036621,249.089554 331.109009,249.914139 
	C333.367523,251.650726 331.675476,253.362411 330.232056,255.155685 
z"/>
</svg>